<svg width="34" height="35" viewBox="0 0 34 35" fill="none" xmlns="http://www.w3.org/2000/svg">
<path fill-rule="evenodd" clip-rule="evenodd" d="M17 34.7581C26.3888 34.7581 34 27.1223 34 17.703C34 8.28377 26.3888 0.647949 17 0.647949C7.61116 0.647949 0 8.28377 0 17.703C0 27.1223 7.61116 34.7581 17 34.7581Z" fill="#F03B36"/>
<path fill-rule="evenodd" clip-rule="evenodd" d="M17.5 8.67383C19.8085 8.67383 20.0979 8.68364 21.0045 8.72514C21.9093 8.76654 22.5272 8.91071 23.0678 9.12153C23.6268 9.33942 24.1008 9.63101 24.5734 10.1051C25.0459 10.5792 25.3366 11.0547 25.5538 11.6155C25.7639 12.1579 25.9076 12.7778 25.9488 13.6855C25.9902 14.595 26 14.8854 26 17.2014C26 19.5173 25.9902 19.8077 25.9488 20.7173C25.9076 21.6249 25.7639 22.2448 25.5538 22.7872C25.3366 23.348 25.0459 23.8235 24.5734 24.2977C24.1008 24.7717 23.6268 25.0633 23.0678 25.2812C22.5272 25.492 21.9093 25.6362 21.0045 25.6776C20.0979 25.7191 19.8085 25.7289 17.5 25.7289C15.1915 25.7289 14.9021 25.7191 13.9955 25.6776C13.0907 25.6362 12.4728 25.492 11.9322 25.2812C11.3732 25.0633 10.8992 24.7717 10.4266 24.2977C9.95409 23.8235 9.66345 23.348 9.44626 22.7872C9.23612 22.2448 9.09242 21.6249 9.05115 20.7173C9.00978 19.8077 9 19.5173 9 17.2014C9 14.8854 9.00978 14.595 9.05115 13.6855C9.09242 12.7778 9.23612 12.1579 9.44626 11.6155C9.66345 11.0547 9.95409 10.5792 10.4266 10.1051C10.8992 9.63101 11.3732 9.33942 11.9322 9.12153C12.4728 8.91071 13.0907 8.76654 13.9955 8.72514C14.9021 8.68364 15.1915 8.67383 17.5 8.67383ZM17.5 10.2103C15.2304 10.2103 14.9616 10.219 14.0653 10.26C13.2365 10.298 12.7865 10.4369 12.4869 10.5537C12.0902 10.7084 11.807 10.8931 11.5096 11.1916C11.2121 11.49 11.028 11.774 10.8738 12.1721C10.7574 12.4726 10.6189 12.9241 10.5811 13.7555C10.5402 14.6547 10.5315 14.9244 10.5315 17.2014C10.5315 19.4783 10.5402 19.748 10.5811 20.6472C10.6189 21.4786 10.7574 21.9302 10.8738 22.2307C11.028 22.6287 11.2122 22.9128 11.5096 23.2112C11.807 23.5096 12.0902 23.6944 12.4869 23.8491C12.7865 23.9659 13.2365 24.1048 14.0653 24.1427C14.9615 24.1837 15.2302 24.1924 17.5 24.1924C19.7698 24.1924 20.0386 24.1837 20.9347 24.1427C21.7635 24.1048 22.2135 23.9659 22.5131 23.8491C22.9098 23.6944 23.193 23.5096 23.4904 23.2112C23.7879 22.9128 23.972 22.6287 24.1262 22.2307C24.2426 21.9302 24.3811 21.4786 24.4189 20.6472C24.4598 19.748 24.4685 19.4783 24.4685 17.2014C24.4685 14.9244 24.4598 14.6547 24.4189 13.7555C24.3811 12.9241 24.2426 12.4726 24.1262 12.1721C23.972 11.774 23.7879 11.49 23.4904 11.1916C23.193 10.8931 22.9098 10.7084 22.5131 10.5537C22.2135 10.4369 21.7635 10.298 20.9347 10.26C20.0384 10.219 19.7696 10.2103 17.5 10.2103ZM17.5 12.8224C19.9107 12.8224 21.8649 14.7829 21.8649 17.2014C21.8649 19.6198 19.9107 21.5804 17.5 21.5804C15.0893 21.5804 13.1351 19.6198 13.1351 17.2014C13.1351 14.7829 15.0893 12.8224 17.5 12.8224ZM17.5 20.0439C19.0648 20.0439 20.3333 18.7712 20.3333 17.2014C20.3333 15.6315 19.0648 14.3589 17.5 14.3589C15.9352 14.3589 14.6667 15.6315 14.6667 17.2014C14.6667 18.7712 15.9352 20.0439 17.5 20.0439ZM23.0573 12.6494C23.0573 13.2145 22.6006 13.6726 22.0373 13.6726C21.474 13.6726 21.0173 13.2145 21.0173 12.6494C21.0173 12.0842 21.474 11.626 22.0373 11.626C22.6006 11.626 23.0573 12.0842 23.0573 12.6494Z" fill="white"/>
</svg>
