<svg width="34" height="35" viewBox="0 0 34 35" fill="none" xmlns="http://www.w3.org/2000/svg">
<path fill-rule="evenodd" clip-rule="evenodd" d="M17 34.7581C26.3888 34.7581 34 27.1223 34 17.703C34 8.28377 26.3888 0.647949 17 0.647949C7.61116 0.647949 0 8.28377 0 17.703C0 27.1223 7.61116 34.7581 17 34.7581Z" fill="#F03B36"/>
<path fill-rule="evenodd" clip-rule="evenodd" d="M18.3591 21.6795C18.403 21.0023 18.7073 19.9482 19.4679 20.5231C19.9275 20.8713 20.2921 21.3758 20.7051 21.8187C21.1081 22.25 21.5891 22.6269 22.4851 22.6038C23.0165 22.5901 24.5427 22.6407 24.9403 22.4954C26.1418 22.058 24.013 20.0593 23.4931 19.612C23.2743 19.4239 23.0291 19.1559 22.8416 18.9568C22.6096 18.7108 22.4983 18.4616 22.6826 18.076L23.4881 16.9393C23.7267 16.678 24.6091 15.4121 24.8224 15.0655C25.1295 14.5659 25.7596 13.5839 24.9474 13.4265C24.4906 13.3379 23.0078 13.4205 22.4435 13.4243C21.3319 13.4315 21.5578 13.3082 21.0094 14.5786C20.6442 15.4236 19.5167 17.4152 18.919 17.6424C17.8107 18.0639 18.6777 14.0312 18.2105 13.3335C17.927 12.9105 16.613 12.9633 15.9983 12.9715C15.2843 12.9803 14.2972 13.0183 14.0888 13.6092C14.1524 13.6636 14.0828 13.6268 14.2061 13.6774C14.295 13.7137 14.4337 13.722 14.5845 13.8028C14.7183 13.8738 14.8401 13.9987 14.9097 14.1109C15.2464 14.6512 15.2059 16.9272 14.9273 17.479C14.4058 18.51 12.8823 15.6134 12.6213 15.0974C12.2484 14.3607 12.102 13.6444 11.6797 13.4612C11.3737 13.3291 9.63918 13.4029 9.1725 13.4106C8.74531 13.4172 8.37679 13.4848 8.53911 13.9926C8.62082 14.2485 8.81495 14.6088 8.93231 14.8669C9.65563 16.4596 10.7864 18.4149 11.7828 19.7397C12.9076 21.2344 14.5703 22.5587 16.6722 22.5757C18.182 22.5879 18.296 22.655 18.3591 21.6795Z" fill="white"/>
</svg>
